# xmcd CD database file
#
# Track frame offsets:
#	150
#	17925
#	30797
#	46466
#	59192
#	78022
#	98002
#	112378
#	130785
#	144234
#	158766
#	179706
#
# Disc length: 2588 seconds
#
# Revision: 0
# Processed by: cddbd v1.5.2PL0 Copyright (c) Steve Scherf et al.
# Submitted via: CDex 1.51
#
DISCID=9e0a1a0c
DTITLE=Maria del Mar bonet MAnel Camp - Blaus de l'anima - CD1
DYEAR=2011
DGENRE=Jazz
TTITLE0=Lover Man
TTITLE1=No se tu com ho sents
TTITLE2=Mercè
TTITLE3=Si vens prest
TTITLE4=Mai donis per finit
TTITLE5=No volria res mès ara
TTITLE6=Ja ni ha prou
TTITLE7=La barbera
TTITLE8=Canço de l'amor petit
TTITLE9=Epigrama
TTITLE10=Dolça remor de cada tarda
TTITLE11=Què volen aquesta gent?
EXTD=YEAR: 2011
EXTT0=
EXTT1=
EXTT2=
EXTT3=
EXTT4=
EXTT5=
EXTT6=
EXTT7=
EXTT8=
EXTT9=
EXTT10=
EXTT11=
PLAYORDER=
